#!OML:ASF H:\Terrain\Patient Classification 1\Animal2\Wednesday\Animal2.ASF
:FULLY-SPECIFIED
:DEGREES
1022
root 12.9942 17.9277 -22.3233 9.07489 -24.1183 -0.783295
lowerback 6.04328 -2.51905 -0.00500821
upperback -4.88067 -3.38918 0.164041
thorax -8.52365 -1.65688 0.628265
lowerneck 10.4798 5.2964 13.9315
upperneck -23.0519 5.60167 -19.9855
head -7.58222 3.45831 -9.82297
rclavicle -1.23806e-014 1.27222e-014
rhumerus -39.0287 24.9454 -72.9941
rradius 103.828
rwrist -13.7525
rhand -20.084 20.7001
rfingers 7.12502
rthumb 6.25875 -9.18744
lclavicle -1.23806e-014 1.27222e-014
lhumerus -40.299 -25.5705 58.8644
lradius 103.432
lwrist 32.1527
lhand -8.77166 6.91769
lfingers 7.12502
lthumb 17.1662 36.1794
rfemur -12.989 -5.96674 21.4447
rtibia 23.7681
rfoot -17.8656 10.0992
rtoes 26.5248
lfemur -11.695 -1.64696 -20.0614
ltibia 21.7099
lfoot -16.3287 9.88949
ltoes -27.7772
1023
root 13.0026 17.9324 -22.3263 8.88528 -24.2763 -0.649346
lowerback 6.05481 -2.47853 -0.256986
upperback -4.76723 -3.35739 0.169319
thorax -8.39225 -1.62697 0.766681
lowerneck 10.6162 5.23807 13.9129
upperneck -23.3965 5.48591 -20.0148
head -7.74196 3.40822 -9.86534
rclavicle 3.78933e-014 1.80894e-014
rhumerus -38.7674 27.1007 -73.3261
rradius 103.606
rwrist -13.473
rhand -18.4152 22.0555
rfingers 7.12502
rthumb 7.8696 -7.77808
lclavicle 3.78933e-014 1.80894e-014
lhumerus -40.028 -26.7187 59.1351
lradius 103.272
lwrist 30.8412
lhand -8.0801 6.48144
lfingers 7.12502
lthumb 17.8318 35.6839
rfemur -12.9683 -5.94351 21.267
rtibia 23.7982
rfoot -17.9449 9.90907
rtoes 25.8933
lfemur -11.5409 -1.6986 -20.2428
ltibia 21.6855
lfoot -16.3282 10.0272
ltoes -27.4199
1024
root 13.0155 17.9375 -22.3349 8.74953 -24.2974 -0.655037
lowerback 6.03425 -2.4698 -0.267402
upperback -4.56545 -3.34455 0.153486
thorax -8.16231 -1.62231 0.746469
lowerneck 10.5079 5.20497 14.0076
upperneck -23.5522 5.40535 -20.1177
head -7.77851 3.36553 -9.92557
rclavicle -1.91827e-014 -5.1684e-015
rhumerus -38.2544 28.4027 -73.4475
rradius 103.49
rwrist -12.724
rhand -17.3726 23.258
rfingers 7.12502
rthumb 8.87578 -6.53532
lclavicle -1.91827e-014 -5.1684e-015
lhumerus -39.4156 -27.1996 59.0125
lradius 102.99
lwrist 29.9228
lhand -8.17665 5.89428
lfingers 7.12502
lthumb 17.7389 35.1052
rfemur -12.8848 -5.78559 21.2147
rtibia 23.8167
rfoot -17.8316 9.89257
rtoes 26.3076
lfemur -11.4447 -1.73902 -20.2506
ltibia 21.698
lfoot -16.2619 9.96882
ltoes -26.883
1025
root 13.0272 17.9321 -22.3467 8.68854 -24.3648 -0.850572
lowerback 6.07841 -2.39856 -0.0900131
upperback -4.37321 -3.2299 0.139488
thorax -7.99257 -1.57738 0.614205
lowerneck 10.2193 5.13402 14.1974
upperneck -23.5449 5.28829 -20.2111
head -7.7318 3.2909 -9.97353
rclavicle 3.30852e-014 5.96354e-016
rhumerus -37.9755 28.9348 -73.3445
rradius 103.608
rwrist -11.8614
rhand -17.1191 24.2233
rfingers 7.12502
rthumb 9.12039 -5.55949
lclavicle 3.30852e-014 5.96354e-016
lhumerus -38.4071 -26.9959 58.5669
lradius 102.555
lwrist 29.9215
lhand -8.71225 5.72432
lfingers 7.12502
lthumb 17.2234 34.981
rfemur -12.712 -5.46618 21.3267
rtibia 23.8065
rfoot -17.6415 10.096
rtoes 27.1872
lfemur -11.3639 -1.52612 -20.0748
ltibia 21.7511
lfoot -16.2606 9.78405
ltoes -26.7163
1026
root 13.0355 17.9304 -22.3586 8.63234 -24.5208 -0.940238
lowerback 6.23375 -2.26049 -0.0740639
upperback -4.35252 -3.04466 0.112104
thorax -8.06447 -1.48737 0.55926
lowerneck 10.0909 5.06519 14.2634
upperneck -23.4469 5.21864 -20.1227
head -7.69154 3.23953 -9.93443
rclavicle -5.09448e-014 -3.97569e-015
rhumerus -38.2842 28.6369 -73.2056
rradius 103.912
rwrist -11.2697
rhand -17.7734 24.6255
rfingers 7.12502
rthumb 8.48905 -5.18392
lclavicle -5.09448e-014 -3.97569e-015
lhumerus -37.4646 -26.1159 58.0598
lradius 102.155
lwrist 30.6375
lhand -9.30862 6.09458
lfingers 7.12502
lthumb 16.6493 35.4005
rfemur -12.6341 -5.22096 21.366
rtibia 23.7617
rfoot -17.4613 10.1464
rtoes 27.2796
lfemur -11.3504 -1.27336 -20.0186
ltibia 21.8695
lfoot -16.225 9.73752
ltoes -27.5497
1027
root 13.044 17.9337 -22.3697 8.5331 -24.6033 -0.955272
lowerback 6.42847 -2.20767 -0.105726
upperback -4.33626 -2.97832 0.090928
thorax -8.16059 -1.45254 0.55424
lowerneck 9.94144 5.17619 14.0667
upperneck -23.3171 5.40133 -19.8097
head -7.60799 3.31063 -9.76713
rclavicle 3.68311e-014 3.37934e-015
rhumerus -38.0266 27.5507 -73.0263
rradius 103.984
rwrist -11.1879
rhand -19.1496 23.9811
rfingers 7.12502
rthumb 7.16071 -5.87771
lclavicle 3.68311e-014 3.37934e-015
lhumerus -36.7593 -24.273 57.4215
lradius 101.776
lwrist 31.7622
lhand -10.6923 6.13151
lfingers 7.12502
lthumb 15.3169 35.5443
rfemur -12.5879 -5.11618 21.3599
rtibia 23.7486
rfoot -17.3413 9.99586
rtoes 26.6611
lfemur -11.3216 -1.09647 -20.0236
ltibia 21.9694
lfoot -16.101 9.71084
ltoes -28.4621
1028
root 13.0555 17.9329 -22.3793 8.36198 -24.5319 -0.887584
lowerback 6.6829 -2.23294 -0.116895
upperback -4.31407 -3.01745 0.036374
thorax -8.28775 -1.47113 0.519176
lowerneck 9.65959 5.28905 13.9958
upperneck -23.0767 5.58372 -19.6034
head -7.45437 3.37717 -9.64596
rclavicle -4.39935e-014 1.74931e-014
rhumerus -37.4147 25.4629 -72.7899
rradius 103.81
rwrist -11.5273
rhand -21.0444 22.9682
rfingers 7.12502
rthumb 5.33146 -6.94472
lclavicle -4.39935e-014 1.74931e-014
lhumerus -36.0927 -21.7831 56.748
lradius 101.272
lwrist 33.2297
lhand -13.7503 6.62115
lfingers 7.12502
lthumb 12.3699 36.2352
rfemur -12.4983 -4.96638 21.2639
rtibia 23.8289
rfoot -17.373 9.67424
rtoes 26.1595
lfemur -11.2021 -1.10876 -20.1018
ltibia 21.9464
lfoot -16.0154 9.63353
ltoes -28.7655
